<?xml version="1.0" encoding="UTF-8"?>
<svg xmlns="http://www.w3.org/2000/svg" width="145" height="22" viewBox="0 0 145 22" fill="none">
  <g clip-path="url(#clip0_6360_2152)">
    <path d="M9.83942 -6.10352e-05H6.62456L0 17.262H3.11931L11.0834 11.1246L11.6286 12.6927L13.2491 17.262H16.4883L9.83942 -6.10352e-05ZM8.17204 2.97313H8.24511L10.171 8.49797L4.74361 12.6795L5.56231 10.3939L8.17391 2.97313H8.17204Z" fill="#171717"></path>
    <path d="M19.5776 13.2472C19.6581 14.0528 19.9635 14.6167 20.4956 14.9389C21.0276 15.2611 21.6646 15.4223 22.4046 15.4223C22.6613 15.4223 22.9573 15.4016 23.287 15.3623C23.6168 15.323 23.9277 15.2462 24.2181 15.1319C24.5085 15.0195 24.7465 14.8546 24.9319 14.6354C25.1174 14.4181 25.2017 14.1314 25.1867 13.7774C25.1699 13.4233 25.0425 13.1329 24.8008 12.9062C24.5591 12.6814 24.2481 12.4997 23.8697 12.3629C23.4912 12.2261 23.0603 12.1081 22.577 12.0126C22.0936 11.9151 21.6009 11.8121 21.1026 11.6978C20.5874 11.5854 20.0909 11.4486 19.615 11.2875C19.1392 11.1264 18.712 10.9091 18.3336 10.6356C17.9551 10.362 17.6516 10.0117 17.4268 9.58455C17.2001 9.1574 17.0877 8.62908 17.0877 8.00147C17.0877 7.32515 17.2526 6.75562 17.5842 6.29662C17.9139 5.83762 18.3336 5.46668 18.8413 5.18378C19.349 4.90276 19.9129 4.70418 20.533 4.59177C21.1531 4.47936 21.7452 4.42316 22.3109 4.42316C22.9554 4.42316 23.5718 4.49247 24.1601 4.62924C24.7483 4.766 25.2804 4.98894 25.7562 5.29432C26.2321 5.60156 26.6274 5.99874 26.9403 6.49146C27.255 6.98418 27.4517 7.57619 27.5323 8.2675H24.6547C24.5254 7.60617 24.2238 7.16403 23.7479 6.93734C23.272 6.71253 22.7287 6.59825 22.1161 6.59825C21.9231 6.59825 21.6927 6.61511 21.4267 6.64696C21.1606 6.67881 20.9115 6.74063 20.6773 6.82868C20.4431 6.91674 20.2464 7.046 20.0853 7.21462C19.9242 7.38323 19.8436 7.60617 19.8436 7.8797C19.8436 8.21879 19.9598 8.49232 20.1939 8.70215C20.4281 8.91197 20.7335 9.08433 21.1119 9.2211C21.4904 9.35786 21.9213 9.47589 22.4046 9.57143C22.888 9.66885 23.3882 9.77377 23.9034 9.88617C24.4036 9.99858 24.8945 10.1353 25.3778 10.2965C25.8612 10.4576 26.2921 10.6749 26.6705 10.9484C27.0489 11.222 27.3562 11.5685 27.5885 11.9882C27.8227 12.4079 27.9388 12.9231 27.9388 13.5357C27.9388 14.2776 27.7702 14.9052 27.4311 15.4223C27.092 15.9375 26.6536 16.3571 26.1141 16.6793C25.5745 17.0016 24.9731 17.2358 24.3137 17.38C23.6523 17.5243 23.0004 17.5973 22.3559 17.5973C21.5653 17.5973 20.8365 17.5093 20.1677 17.3313C19.4989 17.1533 18.9181 16.8836 18.4273 16.522C17.9345 16.1585 17.5486 15.7089 17.2676 15.1675C16.9847 14.6279 16.8367 13.9872 16.8198 13.2453H19.5757L19.5776 13.2472Z" fill="#171717"></path>
    <path d="M28.5479 4.76224H30.6274V1.01532H33.3833V4.76224H35.8731V6.81743H33.3833V13.4888C33.3833 13.7792 33.3945 14.0284 33.4188 14.2382C33.4432 14.448 33.4994 14.6241 33.5875 14.7703C33.6755 14.9145 33.8085 15.0251 33.9865 15.0962C34.1645 15.1693 34.4062 15.2049 34.7115 15.2049C34.9045 15.2049 35.0975 15.2012 35.2923 15.1937C35.4853 15.1862 35.6782 15.1581 35.8731 15.1094V17.2376C35.5658 17.2695 35.268 17.3013 34.9794 17.335C34.6891 17.3669 34.3912 17.3837 34.0858 17.3837C33.3608 17.3837 32.7762 17.3144 32.3322 17.1777C31.8882 17.0409 31.5416 16.8386 31.2925 16.5725C31.0414 16.3065 30.8728 15.973 30.7848 15.5684C30.6967 15.1656 30.6443 14.7066 30.6274 14.1914V6.81743H28.5479V4.76224Z" fill="#171717"></path>
    <path d="M43.1008 17.5992C42.1004 17.5992 41.2105 17.4343 40.4293 17.1027C39.648 16.773 38.9867 16.3177 38.4472 15.737C37.9076 15.1562 37.4954 14.4649 37.2144 13.6574C36.9315 12.8518 36.791 11.9657 36.791 10.9971C36.791 10.0285 36.9315 9.16862 37.2144 8.36303C37.4954 7.55744 37.9076 6.86426 38.4472 6.28349C38.9867 5.70271 39.648 5.24746 40.4293 4.91773C41.2105 4.588 42.1004 4.42126 43.1008 4.42126C44.1013 4.42126 44.9911 4.58613 45.7724 4.91773C46.5536 5.24746 47.2149 5.70271 47.7545 6.28349C48.2941 6.86426 48.7062 7.55744 48.9872 8.36303C49.2683 9.16862 49.4106 10.0473 49.4106 10.9971C49.4106 11.947 49.2701 12.85 48.9872 13.6574C48.7043 14.463 48.2941 15.1562 47.7545 15.737C47.2149 16.3177 46.5536 16.773 45.7724 17.1027C44.9911 17.4325 44.0994 17.5992 43.1008 17.5992ZM43.1008 15.4241C43.7134 15.4241 44.2455 15.2948 44.697 15.0363C45.1485 14.7796 45.5195 14.4405 45.8099 14.0209C46.1002 13.6012 46.3138 13.131 46.4506 12.6064C46.5873 12.0837 46.6567 11.546 46.6567 10.999C46.6567 10.4519 46.5873 9.93486 46.4506 9.4028C46.3138 8.87074 46.1002 8.4005 45.8099 7.98834C45.5195 7.57805 45.1485 7.2427 44.697 6.98416C44.2455 6.7275 43.7134 6.59823 43.1008 6.59823C42.4882 6.59823 41.9561 6.7275 41.5046 6.98416C41.0531 7.2427 40.6822 7.57617 40.3918 7.98834C40.1014 8.39862 39.8878 8.87074 39.7511 9.4028C39.6143 9.93486 39.545 10.4669 39.545 10.999C39.545 11.5311 39.6124 12.0837 39.7511 12.6064C39.8878 13.131 40.1014 13.6012 40.3918 14.0209C40.6822 14.4405 41.0531 14.7796 41.5046 15.0363C41.9561 15.2948 42.4882 15.4241 43.1008 15.4241Z" fill="#171717"></path>
    <path d="M61.7155 17.2619H59.0083V15.5215H58.9596C58.6205 16.151 58.1165 16.6549 57.4477 17.0334C56.7789 17.4118 56.0969 17.601 55.4056 17.601C53.7607 17.601 52.573 17.1945 51.8404 16.3795C51.106 15.5665 50.7407 14.3375 50.7407 12.6926V4.76221H53.4966V12.4265C53.4966 13.5225 53.7064 14.2963 54.1261 14.7478C54.5457 15.1993 55.134 15.4241 55.8909 15.4241C56.4716 15.4241 56.955 15.336 57.3409 15.158C57.7269 14.9801 58.0416 14.744 58.2833 14.4443C58.525 14.1464 58.6973 13.7885 58.8022 13.3689C58.9071 12.9492 58.9596 12.4977 58.9596 12.0144V4.76221H61.7155V17.2601V17.2619Z" fill="#171717"></path>
    <path d="M63.4071 4.76233H66.0188V6.6002L66.0675 6.64891C66.4871 5.95573 67.0342 5.41242 67.7105 5.01712C68.3868 4.62182 69.1362 4.42511 69.9586 4.42511C71.3282 4.42511 72.4073 4.77919 73.1979 5.48923C73.9866 6.19928 74.3819 7.26153 74.3819 8.67974V17.2621H71.626V9.40477C71.5942 8.4212 71.3843 7.70928 70.9965 7.26527C70.6106 6.82126 70.0055 6.6002 69.183 6.6002C68.7147 6.6002 68.2969 6.6845 67.9259 6.85499C67.555 7.0236 67.2403 7.25778 66.9836 7.55566C66.7251 7.85354 66.5246 8.20388 66.3785 8.60667C66.2342 9.00947 66.1611 9.43661 66.1611 9.88812V17.2621H63.4053V4.76233H63.4071Z" fill="#171717"></path>
    <path d="M88.1874 17.262H85.5758V15.5702H85.5271C85.1562 16.2953 84.6166 16.8161 83.9066 17.1289C83.1965 17.4437 82.4472 17.6011 81.6584 17.6011C80.6749 17.6011 79.8168 17.4268 79.0843 17.0821C78.3499 16.7355 77.7429 16.2653 77.2595 15.6676C76.7762 15.0719 76.4127 14.3656 76.1711 13.5525C75.9294 12.7394 75.8076 11.8645 75.8076 10.9297C75.8076 9.80183 75.9612 8.82576 76.2666 8.00518C76.572 7.18273 76.9804 6.50641 77.4881 5.97435C77.9958 5.44229 78.5766 5.05261 79.2286 4.80156C79.8805 4.55239 80.5456 4.42687 81.2238 4.42687C81.6097 4.42687 82.005 4.46247 82.4078 4.53553C82.8106 4.6086 83.1965 4.72475 83.5675 4.88587C83.9384 5.04699 84.2813 5.25307 84.5941 5.50224C84.9089 5.75141 85.1693 6.04554 85.3791 6.38464H85.4278V-0.00012207H88.1837V17.262H88.1874ZM78.5653 11.1451C78.5653 11.6772 78.6347 12.2017 78.7714 12.7169C78.9082 13.2321 79.118 13.693 79.399 14.0939C79.6801 14.4967 80.0398 14.819 80.4744 15.0606C80.909 15.3023 81.4261 15.4241 82.0219 15.4241C82.6176 15.4241 83.1628 15.2948 83.605 15.0363C84.0471 14.7796 84.4105 14.4405 84.6934 14.0209C84.9745 13.6012 85.1843 13.131 85.3211 12.6064C85.4578 12.0837 85.5271 11.546 85.5271 10.999C85.5271 9.61261 85.2161 8.5335 84.596 7.75976C83.9759 6.98602 83.1328 6.60009 82.0706 6.60009C81.4261 6.60009 80.8809 6.7331 80.4388 6.99913C79.9948 7.26517 79.6332 7.61176 79.3503 8.03891C79.0674 8.46606 78.867 8.94941 78.7452 9.48897C78.6253 10.0285 78.5635 10.5812 78.5635 11.1451H78.5653Z" fill="#171717"></path>
    <path d="M90.4154 -0.00012207H96.0733C97.6208 -0.00012207 98.906 0.241555 99.9289 0.724908C100.952 1.20826 101.77 1.85273 102.383 2.65832C102.996 3.46391 103.427 4.38378 103.676 5.41419C103.925 6.44647 104.05 7.50872 104.05 8.60469C104.05 9.82994 103.893 10.9709 103.578 12.0256C103.264 13.0823 102.777 13.9965 102.115 14.7703C101.454 15.544 100.62 16.1529 99.6123 16.595C98.6043 17.039 97.4072 17.2601 96.0227 17.2601H90.4136V-0.00012207H90.4154ZM96.1201 16.3421C96.9257 16.3421 97.7351 16.2166 98.55 15.9674C99.3631 15.7182 100.101 15.2986 100.763 14.7103C101.424 14.122 101.96 13.3314 102.37 12.3404C102.78 11.3493 102.986 10.1035 102.986 8.60469C102.986 7.42816 102.868 6.42024 102.636 5.5828C102.402 4.74536 102.096 4.03906 101.718 3.46766C101.34 2.89625 100.903 2.44475 100.412 2.11314C99.9195 1.78341 99.4118 1.52862 98.8891 1.35252C98.3645 1.17454 97.8418 1.05838 97.3173 1.00218C96.7927 0.945977 96.3225 0.917875 95.9028 0.917875H91.4796V16.3421H96.122H96.1201Z" fill="#171717"></path>
    <path d="M105.767 2.48965V-0.000183105H106.685V2.48965H105.767ZM105.767 17.2619V4.83523H106.685V17.2619H105.767Z" fill="#171717"></path>
    <path d="M119.209 4.83529V16.6081C119.209 17.3013 119.128 17.9739 118.967 18.6259C118.806 19.2778 118.528 19.8549 118.135 20.3551C117.742 20.8553 117.198 21.2525 116.507 21.5522C115.816 21.8501 114.939 22 113.879 22C113.219 22 112.601 21.9307 112.022 21.7939C111.443 21.6571 110.937 21.4398 110.503 21.1419C110.068 20.844 109.718 20.4487 109.453 19.9579C109.187 19.4652 109.039 18.8582 109.008 18.1331H109.926C109.974 18.6802 110.111 19.1486 110.336 19.5345C110.561 19.9223 110.855 20.2389 111.218 20.49C111.582 20.7391 111.988 20.9209 112.44 21.0333C112.891 21.1457 113.375 21.2019 113.89 21.2019C114.744 21.2019 115.458 21.0726 116.029 20.8141C116.601 20.5555 117.056 20.2221 117.395 19.8118C117.734 19.4015 117.97 18.9331 118.109 18.4104C118.246 17.8858 118.315 17.3594 118.315 16.8273V13.974H118.266C117.832 14.892 117.24 15.5946 116.49 16.078C115.741 16.5613 114.834 16.803 113.77 16.803C112.852 16.803 112.058 16.6456 111.389 16.3309C110.72 16.0161 110.163 15.5815 109.721 15.0251C109.277 14.4686 108.948 13.8204 108.73 13.0785C108.513 12.3366 108.404 11.5311 108.404 10.6618C108.404 9.83931 108.52 9.05808 108.755 8.31619C108.989 7.5743 109.33 6.92608 109.781 6.36966C110.233 5.81324 110.793 5.3711 111.462 5.0395C112.131 4.70977 112.901 4.54303 113.77 4.54303C114.753 4.54303 115.66 4.7922 116.49 5.29242C117.32 5.79263 117.912 6.5008 118.266 7.42067H118.315V4.83342H119.209V4.83529ZM113.768 5.343C113.011 5.343 112.354 5.49662 111.797 5.802C111.241 6.10737 110.782 6.51204 110.42 7.01038C110.057 7.5106 109.783 8.07826 109.598 8.71524C109.412 9.35221 109.32 10.0004 109.32 10.6618C109.32 11.3868 109.412 12.0762 109.598 12.7282C109.783 13.3802 110.064 13.9497 110.444 14.433C110.823 14.9164 111.291 15.3005 111.848 15.5815C112.404 15.8644 113.045 16.0049 113.77 16.0049C114.495 16.0049 115.188 15.8606 115.752 15.5702C116.316 15.2799 116.788 14.8864 117.166 14.3862C117.545 13.886 117.828 13.3183 118.013 12.6814C118.199 12.0444 118.291 11.3718 118.291 10.6636C118.291 9.95547 118.197 9.30163 118.013 8.65716C117.828 8.01269 117.545 7.44503 117.166 6.95231C116.788 6.46146 116.316 6.0699 115.752 5.77952C115.188 5.48913 114.527 5.34487 113.77 5.34487L113.768 5.343Z" fill="#171717"></path>
    <path d="M121.432 2.48965V-0.000183105H122.35V2.48965H121.432ZM121.432 17.2619V4.83523H122.35V17.2619H121.432Z" fill="#171717"></path>
    <path d="M129.844 5.63328H127.137V14.313C127.137 14.8132 127.193 15.2066 127.306 15.497C127.418 15.7874 127.592 16.0085 127.825 16.1621C128.059 16.3157 128.34 16.4075 128.672 16.4394C129.001 16.4712 129.385 16.4806 129.82 16.4637V17.2618C129.352 17.2937 128.896 17.2899 128.454 17.2506C128.01 17.2113 127.621 17.0895 127.281 16.8871C126.942 16.6867 126.673 16.3832 126.472 15.9804C126.27 15.5776 126.185 15.0212 126.219 14.313V5.63328H123.922V4.83518H126.219V0.966492H127.137V4.83518H129.844V5.63328Z" fill="#171717"></path>
    <path d="M139.539 14.7945H139.491C139.346 15.1654 139.137 15.5157 138.861 15.8455C138.588 16.1752 138.252 16.4693 137.859 16.7279C137.464 16.9864 137.016 17.1869 136.517 17.333C136.019 17.4791 135.47 17.5503 134.874 17.5503C133.552 17.5503 132.529 17.2637 131.804 16.6923C131.079 16.1209 130.715 15.2385 130.715 14.0451C130.715 13.32 130.86 12.728 131.15 12.269C131.44 11.81 131.806 11.4466 132.25 11.1806C132.692 10.9145 133.185 10.7253 133.724 10.6129C134.264 10.5005 134.784 10.4199 135.283 10.3712L136.709 10.2513C137.37 10.2026 137.889 10.1258 138.267 10.0209C138.646 9.91597 138.932 9.77171 139.125 9.58624C139.318 9.40077 139.44 9.16284 139.489 8.87245C139.537 8.58206 139.562 8.22049 139.562 7.78397C139.562 7.44487 139.496 7.13201 139.369 6.84162C139.24 6.55123 139.039 6.29457 138.764 6.06788C138.49 5.84307 138.136 5.66509 137.7 5.53582C137.265 5.40655 136.733 5.34285 136.103 5.34285C134.991 5.34285 134.093 5.61638 133.408 6.1653C132.722 6.71422 132.347 7.54417 132.283 8.65513H131.365C131.429 7.28563 131.869 6.2571 132.682 5.57329C133.496 4.8876 134.653 4.54663 136.152 4.54663C137.651 4.54663 138.743 4.84076 139.429 5.42903C140.113 6.0173 140.455 6.78729 140.455 7.73713V14.9649C140.455 15.1429 140.459 15.319 140.469 15.497C140.476 15.675 140.504 15.8361 140.553 15.9804C140.602 16.1246 140.682 16.2426 140.795 16.3307C140.907 16.4187 141.068 16.4637 141.278 16.4637C141.439 16.4637 141.664 16.4394 141.954 16.3906V17.1644C141.713 17.2281 141.463 17.2618 141.205 17.2618C140.834 17.2618 140.54 17.2131 140.322 17.1176C140.105 17.0201 139.938 16.8927 139.826 16.7316C139.714 16.5705 139.637 16.3813 139.596 16.164C139.554 15.9466 139.536 15.7087 139.536 15.4502V14.7982L139.539 14.7945ZM139.539 10.2026C139.313 10.4761 138.972 10.6616 138.513 10.759C138.054 10.8564 137.54 10.9276 136.976 10.9763L135.429 11.1206C134.977 11.1693 134.526 11.2368 134.074 11.3267C133.623 11.4147 133.216 11.5646 132.853 11.7744C132.49 11.9843 132.195 12.2709 131.971 12.6325C131.744 12.9941 131.631 13.4662 131.631 14.0469C131.631 14.9649 131.922 15.6469 132.503 16.089C133.083 16.533 133.88 16.7541 134.895 16.7541C135.91 16.7541 136.772 16.5649 137.385 16.1864C137.997 15.808 138.464 15.3734 138.786 14.8806C139.108 14.3898 139.315 13.9139 139.403 13.4549C139.491 12.9959 139.536 12.6849 139.536 12.5238V10.2026H139.539Z" fill="#171717"></path>
    <path d="M144.277 -0.000183105V17.2619H143.359V-0.000183105H144.277Z" fill="#171717"></path>
  </g>
  <defs>
    <clipPath id="clip0_6360_2152">
      <rect width="144.277" height="22.0001" fill="white"></rect>
    </clipPath>
  </defs>
</svg>
